<svg width="218" height="60" viewBox="0 0 218 60" fill="none" xmlns="http://www.w3.org/2000/svg">
<circle cx="10.5" cy="21.5" r="1.5" fill="#E9E9EA"/>
<circle cx="18.5" cy="21.5" r="1.5" fill="#E9E9EA"/>
<circle cx="26.5" cy="21.5" r="1.5" fill="#E9E9EA"/>
<circle cx="34.5" cy="21.5" r="1.5" fill="#3355FF"/>
<circle cx="42.5" cy="21.5" r="1.5" fill="#E9E9EA"/>
<circle cx="50.5" cy="21.5" r="1.5" fill="#E9E9EA"/>
<circle cx="58.5" cy="21.5" r="1.5" fill="#E9E9EA"/>
<circle cx="66.5" cy="21.5" r="1.5" fill="#E9E9EA"/>
<circle cx="1.5" cy="29.5" r="1.5" fill="#EEF2FF"/>
<circle cx="9.5" cy="29.5" r="1.5" fill="#3355FF"/>
<circle cx="17.5" cy="29.5" r="1.5" fill="#E9E9EA"/>
<circle cx="25.5" cy="29.5" r="1.5" fill="#E9E9EA"/>
<circle cx="33.5" cy="29.5" r="1.5" fill="#E9E9EA"/>
<circle cx="41.5" cy="29.5" r="1.5" fill="#E9E9EA"/>
<circle cx="49.5" cy="29.5" r="1.5" fill="#E9E9EA"/>
<circle cx="57.5" cy="29.5" r="1.5" fill="#E9E9EA"/>
<circle cx="10.5" cy="38.5" r="1.5" fill="#E9E9EA"/>
<circle cx="18.5" cy="38.5" r="1.5" fill="#E9E9EA"/>
<circle cx="26.5" cy="38.5" r="1.5" fill="#E9E9EA"/>
<circle cx="34.5" cy="38.5" r="1.5" fill="#EEF2FF"/>
<circle cx="42.5" cy="38.5" r="1.5" fill="#E9E9EA"/>
<circle cx="50.5" cy="38.5" r="1.5" fill="#E9E9EA"/>
<circle cx="58.5" cy="38.5" r="1.5" fill="#E9E9EA"/>
<circle cx="66.5" cy="38.5" r="1.5" fill="#E9E9EA"/>
<rect x="79.06" y="0.06" width="59.88" height="59.88" rx="7.94" fill="white"/>
<rect x="79.06" y="0.06" width="59.88" height="59.88" rx="7.94" stroke="#A3A3A3" stroke-width="0.12"/>
<g filter="url(#filter0_d_5126_54103)">
<path fill-rule="evenodd" clip-rule="evenodd" d="M108.963 24.2818V11.1784L108.93 11.1784C108.023 11.1786 105.198 11.1793 101.449 9.9726L97.8891 20.4232H93.064V24.2818H108.963ZM108.963 24.2818V11.1784L108.998 11.1784C109.933 11.1786 112.728 11.1792 116.478 9.9726L120.037 20.4232H124.862V24.2818H108.963Z" fill="#0243F7"/>
<path d="M94.0244 32.8364H95.4094C95.8736 29.7972 98.4367 27.4617 101.528 27.4617C104.366 27.4617 106.76 29.4306 107.493 32.1053C107.906 31.9258 108.393 31.7945 108.963 31.7945C109.533 31.7945 110.021 31.9258 110.434 32.1053C111.167 29.4306 113.559 27.4617 116.398 27.4617C119.49 27.4617 122.054 29.7972 122.517 32.8364H123.902C124.432 32.8364 124.862 33.2775 124.862 33.8213C124.862 34.3653 124.432 34.8063 123.902 34.8063H122.517C122.053 37.8456 119.49 40.181 116.398 40.181C113.125 40.181 110.442 37.5632 110.22 34.2613C109.983 34.0545 109.558 33.7645 108.963 33.7645C108.369 33.7645 107.943 34.0545 107.706 34.2613C107.484 37.5621 104.802 40.181 101.528 40.181C98.4367 40.181 95.8725 37.8456 95.4094 34.8063H94.0244C93.4941 34.8063 93.064 34.3653 93.064 33.8213C93.064 33.2775 93.4941 32.8364 94.0244 32.8364ZM116.398 38.211C118.759 38.211 120.678 36.2423 120.678 33.8213C120.678 31.4005 118.759 29.4316 116.398 29.4316C114.039 29.4316 112.12 31.4005 112.12 33.8213C112.12 36.2423 114.039 38.211 116.398 38.211ZM101.528 38.211C103.887 38.211 105.807 36.2423 105.807 33.8213C105.807 31.4005 103.887 29.4316 101.528 29.4316C99.1676 29.4316 97.248 31.4005 97.248 33.8213C97.248 36.2423 99.1676 38.211 101.528 38.211Z" fill="black"/>
<path d="M108.435 49.3869C104.442 49.0181 101.862 47.5087 101.071 46.8002C100.446 46.3337 105.001 42.8994 109.809 43.413C113.655 43.8238 116.735 47.9277 116.913 49.3869C116.337 49.9015 112.427 49.7557 108.435 49.3869Z" fill="#FFB000"/>
<path d="M116.512 34.9564C117.248 34.9564 117.846 34.309 117.846 33.5147C117.846 32.8062 118.378 32.2314 119.034 32.2314C119.69 32.2314 120.222 32.8062 120.222 33.5147C120.222 35.725 118.556 37.523 116.51 37.523C115.854 37.523 115.323 36.9484 115.323 36.2397C115.323 35.5309 115.856 34.9564 116.512 34.9564Z" fill="black"/>
<path d="M100.613 34.9564C101.348 34.9564 101.946 34.309 101.946 33.5147C101.946 32.8062 102.478 32.2314 103.134 32.2314C103.79 32.2314 104.322 32.8062 104.322 33.5147C104.322 35.725 102.658 37.523 100.612 37.523C99.9555 37.523 99.4236 36.9484 99.4236 36.2397C99.4236 35.5309 99.9568 34.9564 100.613 34.9564Z" fill="black"/>
</g>
<circle cx="1.5" cy="1.5" r="1.5" transform="matrix(-1 0 0 1 209 20)" fill="#E9E9EA"/>
<circle cx="1.5" cy="1.5" r="1.5" transform="matrix(-1 0 0 1 201 20)" fill="#E9E9EA"/>
<circle cx="1.5" cy="1.5" r="1.5" transform="matrix(-1 0 0 1 193 20)" fill="#E9E9EA"/>
<circle cx="1.5" cy="1.5" r="1.5" transform="matrix(-1 0 0 1 185 20)" fill="#3355FF"/>
<circle cx="1.5" cy="1.5" r="1.5" transform="matrix(-1 0 0 1 177 20)" fill="#E9E9EA"/>
<circle cx="1.5" cy="1.5" r="1.5" transform="matrix(-1 0 0 1 169 20)" fill="#E9E9EA"/>
<circle cx="1.5" cy="1.5" r="1.5" transform="matrix(-1 0 0 1 161 20)" fill="#E9E9EA"/>
<circle cx="1.5" cy="1.5" r="1.5" transform="matrix(-1 0 0 1 153 20)" fill="#E9E9EA"/>
<circle cx="1.5" cy="1.5" r="1.5" transform="matrix(-1 0 0 1 218 28)" fill="#EEF2FF"/>
<circle cx="1.5" cy="1.5" r="1.5" transform="matrix(-1 0 0 1 210 28)" fill="#3355FF"/>
<circle cx="1.5" cy="1.5" r="1.5" transform="matrix(-1 0 0 1 202 28)" fill="#E9E9EA"/>
<circle cx="1.5" cy="1.5" r="1.5" transform="matrix(-1 0 0 1 194 28)" fill="#E9E9EA"/>
<circle cx="1.5" cy="1.5" r="1.5" transform="matrix(-1 0 0 1 186 28)" fill="#E9E9EA"/>
<circle cx="1.5" cy="1.5" r="1.5" transform="matrix(-1 0 0 1 178 28)" fill="#E9E9EA"/>
<circle cx="1.5" cy="1.5" r="1.5" transform="matrix(-1 0 0 1 170 28)" fill="#E9E9EA"/>
<circle cx="1.5" cy="1.5" r="1.5" transform="matrix(-1 0 0 1 162 28)" fill="#E9E9EA"/>
<circle cx="1.5" cy="1.5" r="1.5" transform="matrix(-1 0 0 1 209 37)" fill="#E9E9EA"/>
<circle cx="1.5" cy="1.5" r="1.5" transform="matrix(-1 0 0 1 201 37)" fill="#E9E9EA"/>
<circle cx="1.5" cy="1.5" r="1.5" transform="matrix(-1 0 0 1 193 37)" fill="#E9E9EA"/>
<circle cx="1.5" cy="1.5" r="1.5" transform="matrix(-1 0 0 1 185 37)" fill="#EEF2FF"/>
<circle cx="1.5" cy="1.5" r="1.5" transform="matrix(-1 0 0 1 177 37)" fill="#E9E9EA"/>
<circle cx="1.5" cy="1.5" r="1.5" transform="matrix(-1 0 0 1 169 37)" fill="#E9E9EA"/>
<circle cx="1.5" cy="1.5" r="1.5" transform="matrix(-1 0 0 1 161 37)" fill="#E9E9EA"/>
<circle cx="1.5" cy="1.5" r="1.5" transform="matrix(-1 0 0 1 153 37)" fill="#E9E9EA"/>
<defs>
<filter id="filter0_d_5126_54103" x="92.5499" y="9.9726" width="32.8266" height="40.8836" filterUnits="userSpaceOnUse" color-interpolation-filters="sRGB">
<feFlood flood-opacity="0" result="BackgroundImageFix"/>
<feColorMatrix in="SourceAlpha" type="matrix" values="0 0 0 0 0 0 0 0 0 0 0 0 0 0 0 0 0 0 127 0" result="hardAlpha"/>
<feOffset dy="0.514149"/>
<feGaussianBlur stdDeviation="0.257075"/>
<feComposite in2="hardAlpha" operator="out"/>
<feColorMatrix type="matrix" values="0 0 0 0 0 0 0 0 0 0 0 0 0 0 0 0 0 0 0.25 0"/>
<feBlend mode="normal" in2="BackgroundImageFix" result="effect1_dropShadow_5126_54103"/>
<feBlend mode="normal" in="SourceGraphic" in2="effect1_dropShadow_5126_54103" result="shape"/>
</filter>
</defs>
</svg>
